<?xml version="1.0" encoding="UTF-8"?>
<svg width="180" height="32" viewBox="0 0 180 32" xmlns="http://www.w3.org/2000/svg">
  <!-- Blue square background -->
  <rect x="0" y="4" width="24" height="24" fill="#1E3A8A" rx="2"/>
  <!-- Infinity symbol -->
  <path d="M6 16C6 13.5 7.5 12 9 12C10.5 12 12 13.5 12 16C12 18.5 13.5 20 15 20C16.5 20 18 18.5 18 16C18 13.5 16.5 12 15 12C13.5 12 12 13.5 12 16C12 18.5 10.5 20 9 20C7.5 20 6 18.5 6 16Z" fill="white" stroke="white" stroke-width="1"/>
  <!-- AGROB text -->
  <text x="30" y="22" font-family="Arial, sans-serif" font-size="16" font-weight="bold" fill="#000000">AGROB</text>
  <!-- BUCHTAL text -->
  <text x="90" y="22" font-family="Arial, sans-serif" font-size="16" font-weight="bold" fill="#000000">BUCHTAL</text>
</svg> 